HIERARCHY
ROOT Hips
{
	OFFSET 0.000000 0.000000 0.000000
	CHANNELS 6 Xposition Yposition Zposition Zrotation Yrotation Xrotation 
	JOINT LHipJoint
	{
		OFFSET 0.000000 0.000000 0.000000
		CHANNELS 3 Zrotation Yrotation Xrotation
		JOINT LeftUpLeg
		{
			OFFSET 1.363060 -1.794630 0.839290
			CHANNELS 3 Zrotation Yrotation Xrotation
			JOINT LeftLeg
			{
				OFFSET 2.448110 -6.726130 0.000000
				CHANNELS 3 Zrotation Yrotation Xrotation
				JOINT LeftFoot
				{
					OFFSET 2.562200 -7.039590 0.000000
					CHANNELS 3 Zrotation Yrotation Xrotation
					JOINT LeftToeBase
					{
						OFFSET 0.157640 -0.433110 2.322550
						CHANNELS 3 Zrotation Yrotation Xrotation
						End Site
						{
							OFFSET 0.000000 0.000000 0.000000
						}
					}
				}
			}
		}
	}
	JOINT RHipJoint
	{
		OFFSET 0.000000 0.000000 0.000000
		CHANNELS 3 Zrotation Yrotation Xrotation
		JOINT RightUpLeg
		{
			OFFSET -1.305520 -1.794630 0.839290
			CHANNELS 3 Zrotation Yrotation Xrotation
			JOINT RightLeg
			{
				OFFSET -2.542530 -6.985550 0.000000
				CHANNELS 3 Zrotation Yrotation Xrotation
				JOINT RightFoot
				{
					OFFSET -2.568260 -7.056230 0.000000
					CHANNELS 3 Zrotation Yrotation Xrotation
					JOINT RightToeBase
					{
						OFFSET -0.164730 -0.452590 2.363150
						CHANNELS 3 Zrotation Yrotation Xrotation
						End Site
						{
							OFFSET 0.000000 0.000000 0.000000
						}
					}
				}
			}
		}
	}
	JOINT LowerBack
	{
		OFFSET 0.000000 0.000000 0.000000
		CHANNELS 3 Zrotation Yrotation Xrotation
		JOINT Spine
		{
			OFFSET 0.028270 2.035590 -0.193380
			CHANNELS 3 Zrotation Yrotation Xrotation
			JOINT Spine1
			{
				OFFSET 0.056720 2.048850 -0.042750
				CHANNELS 3 Zrotation Yrotation Xrotation
				JOINT Neck
				{
					OFFSET 0.000000 0.000000 0.000000
					CHANNELS 3 Zrotation Yrotation Xrotation
					JOINT Neck1
					{
						OFFSET -0.054170 1.746240 0.172020
						CHANNELS 3 Zrotation Yrotation Xrotation
						JOINT Head
						{
							OFFSET 0.104070 1.761360 -0.123970
							CHANNELS 3 Zrotation Yrotation Xrotation
							End Site
							{
								OFFSET 0.000000 0.000000 0.000000
							}
						}
					}
				}
				JOINT LeftShoulder
				{
					OFFSET 0.000000 0.000000 0.000000
					CHANNELS 3 Zrotation Yrotation Xrotation
					JOINT LeftArm
					{
						OFFSET 3.362410 1.200890 -0.311210
						CHANNELS 3 Zrotation Yrotation Xrotation
						JOINT LeftForeArm
						{
							OFFSET 4.983000 -0.000000 -0.000000
							CHANNELS 3 Zrotation Yrotation Xrotation
							JOINT LeftHand
							{
								OFFSET 3.483560 -0.000000 -0.000000
								CHANNELS 3 Zrotation Yrotation Xrotation
								JOINT LeftFingerBase
								{
									OFFSET 0.000000 0.000000 0.000000
									CHANNELS 3 Zrotation Yrotation Xrotation
									JOINT LeftHandIndex1
									{
										OFFSET 0.715260 -0.000000 -0.000000
										CHANNELS 3 Zrotation Yrotation Xrotation
										End Site
										{
											OFFSET 0.000000 0.000000 0.000000
										}
									}
								}
								JOINT LThumb
								{
									OFFSET 0.000000 0.000000 0.000000
									CHANNELS 3 Zrotation Yrotation Xrotation
									End Site
									{
										OFFSET 0.000000 0.000000 0.000000
									}
								}
							}
						}
					}
				}
				JOINT RightShoulder
				{
					OFFSET 0.000000 0.000000 0.000000
					CHANNELS 3 Zrotation Yrotation Xrotation
					JOINT RightArm
					{
						OFFSET -3.136600 1.374050 -0.404650
						CHANNELS 3 Zrotation Yrotation Xrotation
						JOINT RightForeArm
						{
							OFFSET -5.241900 -0.000000 -0.000000
							CHANNELS 3 Zrotation Yrotation Xrotation
							JOINT RightHand
							{
								OFFSET -3.444170 -0.000000 -0.000000
								CHANNELS 3 Zrotation Yrotation Xrotation
								JOINT RightFingerBase
								{
									OFFSET 0.000000 0.000000 0.000000
									CHANNELS 3 Zrotation Yrotation Xrotation
									JOINT RightHandIndex1
									{
										OFFSET -0.622530 -0.000000 -0.000000
										CHANNELS 3 Zrotation Yrotation Xrotation
										End Site
										{
											OFFSET 0.000000 0.000000 0.000000
										}
									}
								}
								JOINT RThumb
								{
									OFFSET 0.000000 0.000000 0.000000
									CHANNELS 3 Zrotation Yrotation Xrotation
									End Site
									{
										OFFSET 0.000000 0.000000 0.000000
									}
								}
							}
						}
					}
				}
			}
		}
	}
}
MOTION
Frames: 7
Frame Time: 0.008333
9.951229 17.810236 34.740737 179.645848 -2.556740 -153.466244 9.030800 0.836341 -2.002445 -23.538491 -21.158412 -23.326727 -1.126817 6.791895 14.519493 0.552311 -2.715662 -17.545215 3.502600 -11.467400 -33.872800 -13.537425 -2.177207 -1.384005 29.866830 21.222037 -21.448910 1.376228 -6.325118 13.529407 -1.205235 -4.279869 -24.376167 -1.499300 7.734300 -21.910100 -1.687982 -0.985741 -20.506687 1.608361 -1.827730 -4.785824 -1.018196 -1.855407 14.236194 -3.653211 -4.915885 -9.311328 1.560189 -5.671621 21.566718 -2.803000 -2.015000 5.593900 16.147339 0.099307 0.329968 -102.491312 -2.568127 24.080482 12.662368 -14.958288 -2.240413 -1.449056 0.931968 5.775750 18.231332 -11.223735 -4.254700 -7.125000 0.000000 0.000000 -5.178400 17.337200 3.414100 -10.714002 0.781611 -0.027490 97.261593 -2.329684 6.615982 -10.681134 20.359262 -2.551605 0.672219 3.928254 4.209848 -8.210142 -45.298147 6.539500 7.125000 0.000000 0.000000 56.366200 -72.937700 -40.575400 
9.952327 17.809468 34.741176 179.667258 -2.501840 -153.316698 9.026257 0.817568 -2.011579 -23.426149 -21.169828 -23.528496 -1.131534 6.821031 14.550097 0.563626 -2.671604 -17.642900 3.529100 -11.505900 -34.005600 -13.555698 -2.160597 -1.369331 29.812818 21.354817 -21.652742 1.378029 -6.370592 13.582748 -1.209836 -4.250769 -24.445281 -1.447900 7.606600 -21.525300 -1.781211 -1.013311 -20.363188 1.680597 -1.865525 -4.787279 -0.707582 -1.880045 14.173315 -3.785882 -4.887097 -9.352503 1.560677 -5.600712 21.543945 -2.785400 -1.986700 5.608900 16.149132 0.141733 0.333891 -102.646518 -2.227358 24.062648 12.668498 -14.982739 -2.244538 -1.473305 0.903720 5.739912 18.396036 -11.006926 -4.210600 -7.125000 0.000000 0.000000 -5.043200 17.581700 3.297100 -10.675881 0.772300 -0.030120 96.875515 -2.670738 6.629811 -10.693830 20.371717 -2.555183 0.668072 3.926353 4.071696 -8.287340 -45.096693 6.582700 7.125000 0.000000 0.000000 55.716500 -72.865300 -39.960400 
9.951778 17.809138 34.744249 179.627846 -2.493568 -153.133012 9.039893 0.793641 -2.018165 -23.355303 -21.449823 -23.682613 -1.144094 6.850538 14.562708 0.599508 -2.479948 -17.846688 3.510400 -11.478800 -33.912100 -13.556516 -2.143777 -1.372083 29.675928 21.375264 -21.928596 1.378840 -6.425436 13.653965 -1.208180 -4.262093 -24.481401 -1.491800 7.715900 -21.854600 -1.677126 -1.026957 -20.302612 1.657804 -1.884990 -4.744790 -0.841092 -1.873543 14.279611 -3.815906 -4.886598 -9.310509 1.589809 -5.614304 21.523755 -2.759100 -1.995700 5.583700 16.156666 0.163060 0.345518 -102.424861 -2.021598 24.225235 12.685099 -15.035949 -2.255069 -1.484575 0.890013 5.523446 18.448831 -10.997817 -4.217500 -7.125000 0.000000 0.000000 -5.000900 17.596600 3.267600 -10.696503 0.735134 -0.021932 96.839202 -2.926378 6.722736 -10.723857 20.460936 -2.576656 0.691987 3.957737 3.933882 -8.792663 -45.624775 7.050000 7.125000 0.000000 0.000000 56.927200 -73.336200 -41.461100 
9.953205 17.808041 34.747432 179.545106 -2.442975 -152.897940 9.051482 0.762973 -2.019933 -23.305251 -21.866597 -23.845201 -1.167287 6.883208 14.563224 0.666850 -2.039739 -18.109995 3.740200 -11.806400 -35.050300 -13.566545 -2.120950 -1.372280 29.462413 21.439952 -22.247625 1.382036 -6.465203 13.671032 -1.207708 -4.215042 -24.511221 -1.480600 7.688100 -21.770700 -1.777620 -1.076640 -20.304150 1.681083 -1.916816 -4.705769 -0.717184 -1.894563 14.428704 -3.900523 -4.882553 -9.313833 1.631030 -5.604478 21.511180 -2.729600 -1.992600 5.571700 16.146864 0.186147 0.360716 -102.423487 -1.875079 24.070529 12.639351 -14.986675 -2.239579 -1.489011 0.930385 5.946873 18.568075 -11.206023 -4.331700 -7.125000 0.000000 0.000000 -4.913600 17.337800 3.238100 -10.679109 0.708253 -0.015138 96.600888 -3.138820 6.696712 -10.724567 20.480197 -2.580973 0.720403 4.005876 3.825058 -9.345704 -46.268862 7.576500 7.125000 0.000000 0.000000 58.609700 -73.874200 -43.451900 
9.958253 17.806943 34.749407 179.510639 -2.361995 -152.645551 9.071466 0.728830 -2.048526 -23.180258 -22.190765 -24.036449 -1.184490 6.917472 14.571962 0.712722 -1.755231 -18.332556 3.683800 -11.727300 -34.774000 -13.576422 -2.094938 -1.382802 29.289078 21.559726 -22.578990 1.385335 -6.515979 13.701217 -1.205988 -4.146306 -24.528315 -1.475800 7.676300 -21.735100 -1.775359 -1.090250 -20.732218 1.651934 -1.884488 -4.551326 -0.798047 -1.888426 15.193330 -3.927822 -4.889522 -9.293826 1.712610 -5.630371 21.526285 -2.680800 -2.000300 5.514300 16.126165 0.178845 0.397785 -102.187373 -2.083636 23.788652 12.669274 -15.064630 -2.251616 -1.452411 0.905543 5.916973 18.226216 -11.109808 -4.203400 -7.125000 0.000000 0.000000 -5.177000 17.489900 3.395700 -10.667046 0.650213 0.022739 96.600401 -2.744408 6.176036 -10.554320 20.237192 -2.510480 0.750829 4.006011 4.175209 -9.480021 -46.265538 7.685700 7.125000 0.000000 0.000000 58.516500 -73.927000 -43.427700 
9.962643 17.807273 34.752919 179.589415 -2.296874 -152.386540 9.088259 0.693948 -2.083155 -22.905730 -22.357481 -24.317280 -1.194414 6.964314 14.615019 0.737176 -1.623855 -18.503478 3.478900 -11.432600 -33.753200 -13.596043 -2.065398 -1.378631 29.232149 21.763955 -22.957796 1.388314 -6.602696 13.803553 -1.201545 -4.115786 -24.547239 -1.481200 7.689600 -21.775200 -1.677247 -1.064452 -21.007800 1.640691 -1.845941 -4.430235 -0.854202 -1.872329 15.771176 -3.942998 -4.892768 -9.409214 1.765718 -5.617242 21.515501 -2.647900 -1.990400 5.499500 16.107019 0.187961 0.423313 -101.977208 -2.204526 23.590549 12.664533 -15.077433 -2.246116 -1.449145 0.881927 6.031921 18.197468 -10.906301 -4.115900 -7.125000 0.000000 0.000000 -5.195100 17.733300 3.379900 -10.655930 0.610547 0.048846 96.610186 -2.466318 5.667183 -10.418758 20.040148 -2.452278 0.766219 4.003948 4.574047 -9.358392 -46.252906 7.580400 7.125000 0.000000 0.000000 58.583100 -73.873300 -43.428200 
9.964728 17.808809 34.756980 179.705006 -2.186622 -152.248945 9.092477 0.677384 -2.075400 -22.670886 -22.387117 -24.570337 -1.199873 7.020418 14.708677 0.764593 -1.440630 -18.626557 3.622100 -11.639800 -34.469500 -13.618989 -2.032129 -1.328257 29.234442 22.093582 -23.215828 1.392811 -6.688687 13.931263 -1.198540 -4.213037 -24.620753 -1.494700 7.723100 -21.876200 -1.614799 -1.024201 -20.161581 1.679786 -1.858819 -4.587142 -0.690936 -1.852669 14.755696 -3.936515 -4.894688 -9.487690 1.682613 -5.589913 21.454904 -2.697000 -1.985300 5.574600 16.147298 0.271820 0.383952 -101.990422 -1.324667 23.569005 12.637930 -15.061110 -2.243471 -1.466480 0.882855 6.126098 18.362501 -10.856913 -4.138300 -7.125000 0.000000 0.000000 -5.065400 17.774900 3.290200 -10.659085 0.635598 0.010722 96.404977 -3.393064 5.692232 -10.450986 20.104405 -2.468225 0.755982 4.012627 4.491123 -9.280503 -46.336296 7.525800 7.125000 0.000000 0.000000 58.926900 -73.883400 -43.733100 
